<?xml version="1.0" standalone="no"?>
<!DOCTYPE svg PUBLIC "-//W3C//DTD SVG 20010904//EN" "http://www.w3.org/TR/2001/REC-SVG-20010904/DTD/svg10.dtd">
<!-- Created using Krita: https://krita.org -->
<svg xmlns="http://www.w3.org/2000/svg" 
    xmlns:xlink="http://www.w3.org/1999/xlink"
    xmlns:krita="http://krita.org/namespaces/svg/krita"
    xmlns:sodipodi="http://sodipodi.sourceforge.net/DTD/sodipodi-0.dtd"
    width="595.2pt"
    height="841.92pt"
    viewBox="0 0 595.2 841.92">
<defs/>
<ellipse id="shape0" transform="translate(97.6799995279313, 51.8399969100954)" rx="207.84" ry="200.879988026619" cx="207.84" cy="200.879988026619" fill="#f84c98" fill-rule="evenodd" stroke="#000000" stroke-opacity="0" stroke-width="0" stroke-linecap="square" stroke-linejoin="bevel"/><path id="shape1" transform="translate(167.039990043641, 120.239992833138)" fill="#2c0e1b" fill-rule="evenodd" stroke="#000000" stroke-opacity="0" stroke-width="0" stroke-linecap="square" stroke-linejoin="bevel" d="M0 226.08L87.36 327.12C152.798 345.841 227.679 322.707 270 288C292.021 270.68 310.894 247.18 324.258 223.923C334.315 203.9 341.037 179.177 344.64 160.32C334.466 144.552 331.36 140.907 317.88 120.24C292.31 81.037 254.89 29.9609 235.44 0L4.32 195.84C4.32 195.84 2.88 205.92 0 226.08Z"/><ellipse id="shape2" transform="translate(189.6, 140.64)" rx="111.48" ry="113.76" cx="111.48" cy="113.76" fill="#cd0400" fill-rule="evenodd" stroke="#000000" stroke-opacity="0" stroke-width="0" stroke-linecap="square" stroke-linejoin="bevel"/><path id="shape3" transform="translate(200.159999398018, 118.199999471335)" fill="#cd0400" fill-rule="evenodd" stroke="#000000" stroke-opacity="0" stroke-width="0" stroke-linecap="square" stroke-linejoin="bevel" d="M7.43999 77.4L0 0L46.32 38.16Z"/><path id="shape4" transform="translate(159.345828466711, 295.919999125512)" fill="#d80804" fill-rule="evenodd" stroke="#000000" stroke-opacity="0" stroke-width="0" stroke-linecap="square" stroke-linejoin="bevel" d="M70.0275 46.9004C-6.60817 83.5049 -25.5596 25.447 39.3742 0C-7.26177 40.8056 2.95599 56.439 70.0275 46.9004Z"/><path id="shape5" transform="translate(409.919974073863, 229.439985488649)" fill="#de0904" fill-rule="evenodd" stroke="#000000" stroke-opacity="0" stroke-width="0" stroke-linecap="square" stroke-linejoin="bevel" d="M0 41.28C16.7066 29.685 38.7911 20.651 36.48 0C49.6097 17.7888 37.4497 31.5488 0 41.28Z"/><path id="shape6" transform="translate(431.539825628282, 205.559993125149)" fill="#d70602" fill-rule="evenodd" stroke="#000000" stroke-opacity="0" stroke-width="0" stroke-linecap="square" stroke-linejoin="bevel" d="M7.66016 35.64C4.53092 33.9675 -5.5632 18.8181 4.06016 0C25.2753 7.17908 28.3542 17.8202 27.4602 27.72C21.1954 40.4274 14.5954 43.0674 7.66016 35.64Z"/><path id="shape0" transform="matrix(-0.999999971290351 0 0 0.999999971290351 403.98935138639 118.617360035917)" fill="#cd0400" stroke="#000000" stroke-opacity="0" stroke-width="0" stroke-linecap="square" stroke-linejoin="bevel" d="M7.43999 77.4L0 0L46.32 38.16Z"/>
</svg>
